,
Brought to you by  http://www.scenetime.com/signup.php
 
 Hottest scene tracker on the net !!!   
 
No fake torrents from scenebalance 
shame on those who comment fake before downloading my torrents

    seed back for speed


 



...................................NFO:.................................................General 
Complete name : Air Buddies 2006 DVDRip Xvid AC3-Freebee.avi 
Format : AVI 
Format/Info : Audio Video Interleave 
File size : 1.40 GiB 
Duration : 1h 19mn 
Overall bit rate : 2 510 Kbps 

Video 
ID : 0 
Format : MPEG-4 Visual 
Format profile : Advanced Simple@L5 
Format settings, BVOP : 2 
Format settings, QPel : No 
Format settings, GMC : No warppoints 
Format settings, Matrix : Default (MPEG) 
Codec ID : XVID 
Codec ID/Hint : XviD 
Duration : 1h 19mn 
Bit rate : 2 054 Kbps 
Width : 720 pixels 
Height : 400 pixels 
Display aspect ratio : 16:9 
Frame rate : 23.976 fps 
Color space : YUV 
Chroma subsampling : 4:2:0 
Bit depth : 8 bits 
Scan type : Progressive 
Compression mode : Lossy 
Bits/(Pixel*Frame) : 0.297 
Stream size : 1.14 GiB (82%) 
Writing library : XviD 63 

Audio 
ID : 1 
Format : AC-3 
Format/Info : Audio Coding 3 
Mode extension : CM (complete main) 
Codec ID : 2000 
Duration : 1h 19mn 
Bit rate mode : Constant 
Bit rate : 448 Kbps 
Channel(s) : 6 channels 
Channel positions : Front: L C R, Side: L R, LFE 
Sampling rate : 48.0 KHz 
Bit depth : 16 bits 
Compression mode : Lossy 
Stream size : 256 MiB (18%) 
Alignment : Aligned on interleaves 
Interleave, duration : 64 ms (1.53 video frames) 
Interleave, preload duration : 1216 ms 
Title : VTS_01_1 T80 3_2ch 448Kbps DELAY 0ms english 


   
              Language.............: English, Spanish, French
              Subtitle.............: English, Spanish, French
              Imdb-Rating..........: 4.8/10
              Imdb.................: http://www.imdb.com/title/tt0470982/
              Video-Source.........: DVD
              Audio-Source.........: DVD
              Encoder..............: Freebee269
              Plot.................: When dad BUDDY and mom MOLLY are
 dognapped, their five adorable pups, the AIR BUDDIES, must save the day... 

              Director.............: Robert Vince
              Writer...............: Robert Vince, Anna McRoberts
              Stars................: Cascy Beddow, Jane Carr and Kelly Chapek
   
                    
                    Sample Included
                    


                    
                    Greets: All P2P Groups!
                    

 
                                          
                           Respects                  
                    
                     SANTi, TOXiCiNK, LKRG 
                    NPW, FLAWL3SS, BDK, CM8
                      IMAGiNE, ViSiON, Rx  
                          Legion, *THC*